<svg width="415" height="80" xmlns="http://www.w3.org/2000/svg" xml:space="preserve" version="1.1">

 <g>
  <title>Layer 1</title>
  <g id="svg_1">
   <path id="svg_2" clip-rule="evenodd" fill-rule="evenodd" d="m32.3,76l0,-7.9l-8.8,0l0,-21.1l8.5,0c2.1,0 3.7,0.3 4.7,0.8c0.9,0.5 1.9,1.6 2.8,3.2l11.1,19.6c1.3,2.2 2.5,3.7 3.8,4.4c1.1,0.7 3.3,1 6.2,1l6.1,0l0,-7.9l-2.1,0c-2.4,0 -4.1,-0.8 -5,-2.3l-10.2,-17.8c-0.8,-1.5 -1.8,-2.6 -3.1,-3.4l0,-0.2c4.6,-1.1 8.2,-3.6 10.9,-7.1c2.6,-3.6 4,-7.8 4,-13c0,-4.8 -1.1,-8.7 -3.4,-11.9c-2.2,-3.2 -5.3,-5.4 -9.2,-6.7c-3.1,-1 -7.4,-1.5 -13.2,-1.5l-31.1,0l0,7.8l8.9,0l0,56l-8.9,0l0,7.9l28,0l0,0.1zm-8.9,-63.5l11.9,0c3.7,0 6.6,0.4 8.8,1.3c4.5,1.8 6.7,5.6 6.7,11.3c0,4.2 -1.2,7.5 -3.6,9.9c-2.3,2.4 -5.5,3.7 -9.5,3.7l-14.4,0l0,-26.2l0.1,0z" class="st0"/>
   <path id="svg_3" clip-rule="evenodd" fill-rule="evenodd" d="m86.2,66.8c2.4,3.4 5.7,5.9 9.9,7.7c4.1,1.8 8.6,2.7 13.7,2.7c5,0 9.5,-0.9 13.6,-2.7c4.2,-1.7 7.4,-4.4 9.8,-7.7c3.4,-4.8 5,-10.6 5,-17.5l0,-37.3l8.9,0l0,-7.8l-28.2,0l0,7.8l9.1,0l0,37c0,4.6 -0.9,8.4 -2.7,11.6c-3.1,5 -8.2,7.5 -15.5,7.5c-7.2,0 -12.4,-2.4 -15.5,-7.3c-1.8,-3 -2.7,-6.8 -2.7,-11.7l0,-37.1l9.1,0l0,-7.8l-28.3,0l0,7.8l9.1,0l0,37.2c-0.1,7.4 1.5,13.2 4.7,17.6l0,0l0,0z" class="st0"/>
   <path id="svg_4" clip-rule="evenodd" fill-rule="evenodd" d="m192.3,77.2c2.9,0 6,-0.3 9.2,-0.8c3.2,-0.5 6.3,-1.4 9.5,-2.5c3.2,-1.1 5.7,-2.6 7.7,-4.7c1.9,-2 3,-4.4 3,-7l0,-20.2l-23.4,0l0,8l14,0l0,9.5c0,2.1 -1.2,4 -3.6,5.4c-2.4,1.4 -5,2.3 -7.7,2.8c-2.7,0.5 -5.4,0.7 -7.9,0.7c-8.3,0 -15.1,-2.7 -20,-8.1c-5.1,-5.4 -7.6,-12.2 -7.6,-20.6c0,-8.3 2.4,-15.1 7.4,-20.2c5,-5.1 11.6,-7.6 19.9,-7.6c4.7,0 8.8,0.8 12.5,2.3c3.6,1.6 5.4,3.9 5.4,6.6l0,5.2l9.4,0l0,-8.8c0,-2.8 -1.4,-5.4 -4.3,-7.6c-2.9,-2.2 -6.4,-3.9 -10.6,-5c-4.2,-1 -8.3,-1.5 -12.7,-1.5c-11.1,0 -20.1,3.5 -27.2,10.4c-7,7 -10.5,15.9 -10.5,26.5s3.6,19.6 10.6,26.6c6.9,7.1 15.9,10.6 26.9,10.6l0,0l0,0z" class="st0"/>
   <path id="svg_5" clip-rule="evenodd" fill-rule="evenodd" d="m239.6,75.1c1.8,1.4 4,2.1 6.4,2.1c2.9,0 5.3,-1 7.3,-3.1c0.9,-0.9 1.6,-1.9 2.1,-3.1l0.1,0c0,0.2 0,0.4 -0.1,0.5c-0.1,0.5 -0.1,1 -0.1,1.6l0,0.5c0,2 1.1,3 3.2,3l4.4,0l0,-3l-3,0c-0.8,0 -1.2,-0.4 -1.2,-1.2l0,-13.5c0,-6.8 -3.4,-10.2 -10,-10.2c-2.8,0 -5.1,0.5 -7.3,1.5c-0.9,0.4 -1.8,0.9 -2.6,1.6l1.7,2.8c0.8,-0.6 1.5,-1 2.2,-1.4c1.9,-0.9 3.8,-1.3 5.7,-1.3c4.4,0 6.6,2.3 6.6,6.9l0,1.1l-1.8,0c-10.9,0 -16.4,3.1 -16.4,9.2c0.1,2.6 1,4.6 2.8,6l0,0l0,0zm13.9,-12.4l1.6,0l0,1.3c0,2.6 -0.8,4.9 -2.3,7c-1.6,2.1 -3.7,3.2 -6.2,3.2c-1.8,0 -3.2,-0.5 -4.3,-1.6c-1,-1.1 -1.6,-2.4 -1.6,-3.8c0,-4.1 4.3,-6.1 12.8,-6.1l0,0l0,0z" class="st0"/>
   <path id="svg_6" clip-rule="evenodd" fill-rule="evenodd" d="m279.3,76.6l0,-3l-4.2,0l0,-8.5c0,-1.9 0.3,-3.8 0.9,-5.6c0.5,-1.8 1.5,-3.3 2.9,-4.7c1.4,-1.4 3,-2 4.9,-2c0.5,0 0.9,0 1,0.1c0.1,0.1 0.3,0.1 0.4,0.1l0,-3.6l-0.5,-0.1c-0.2,-0.1 -0.5,-0.1 -1,-0.1c-2.1,0 -3.8,0.6 -5.3,2c-1.5,1.4 -2.6,3.1 -3.3,5.3l-0.1,0c0,-0.3 0,-0.4 0.1,-0.6c0.1,-0.3 0.1,-0.8 0.1,-1.5l0,-1.8c0,-1.1 -0.3,-1.9 -0.8,-2.4c-0.5,-0.5 -1.4,-0.7 -2.5,-0.7l-5.1,0l0,3l3.7,0c0.8,0 1.2,0.4 1.2,1.2l0,20l-4.2,0l0,3l11.8,0l0,-0.1z" class="st0"/>
   <path id="svg_7" clip-rule="evenodd" fill-rule="evenodd" d="m292.5,71.2c0.5,1.3 1,2.3 1.7,3c0.7,0.7 1.5,1.2 2.4,1.6c0.9,0.4 1.7,0.7 2.4,0.8c0.7,0.1 1.5,0.2 2.2,0.2c0.7,0 1,0 1.1,-0.1c0.1,-0.1 0.3,-0.1 0.4,-0.1l0,-3.2c-0.1,0 -0.2,0 -0.3,0.1c-0.1,0.1 -0.4,0.1 -0.9,0.1c-0.6,0 -1.3,-0.1 -1.9,-0.3c-0.6,-0.2 -1.2,-0.5 -1.9,-1c-0.7,-0.4 -1.2,-1.2 -1.7,-2.2c-0.4,-1 -0.7,-2.3 -0.7,-3.8l0,-14l6.9,0l0,-3l-6.9,0l0,-7.5l-3.6,0l0,7.5l-4.7,0l0,3l4.9,0l0,14.3c-0.1,1.8 0.2,3.3 0.6,4.6l0,0l0,0z" class="st0"/>
   <polygon id="svg_8" clip-rule="evenodd" fill-rule="evenodd" points="319.70001220703125,76.5999984741211 319.70001220703125,73.5999984741211 315.1000061035156,73.5999984741211 315.1000061035156,49.30000305175781 306.6000061035156,49.30000305175781 306.6000061035156,52.400001525878906 311.3999938964844,52.400001525878906 311.3999938964844,73.5999984741211 306.79998779296875,73.5999984741211 306.79998779296875,76.5999984741211 319.70001220703125,76.5999984741211 " class="st0"/>
   <path id="svg_9" clip-rule="evenodd" fill-rule="evenodd" d="m326.9,75.4c2.1,1.2 4.4,1.8 7.1,1.8c3.1,0 5.6,-0.7 7.5,-2.1c1.9,-1.4 2.8,-3.2 2.8,-5.6c0,-1.1 -0.2,-2.2 -0.7,-3.1c-0.5,-0.9 -1.2,-1.7 -2.2,-2.3c-1,-0.7 -1.9,-1.1 -2.7,-1.5c-0.8,-0.4 -1.9,-0.8 -3.2,-1.2c-1.1,-0.4 -2.1,-0.8 -2.7,-1c-0.7,-0.3 -1.4,-0.6 -2.1,-1.1c-0.8,-0.4 -1.3,-0.9 -1.6,-1.5c-0.4,-0.5 -0.5,-1.2 -0.5,-1.9c0,-1.2 0.5,-2.2 1.7,-2.9c1.1,-0.7 2.4,-1 4.1,-1c1.5,0 2.8,0.3 4,0.9c1.1,0.6 1.6,1.4 1.6,2.4l0,2l3.4,0l0,-3.3c0,-1.7 -1,-3 -2.9,-4c-1.9,-0.9 -4,-1.4 -6.2,-1.4c-2.5,0 -4.7,0.6 -6.6,1.8c-1.9,1.2 -2.8,3.1 -2.8,5.4c0,0.9 0.2,1.8 0.5,2.5c0.4,0.8 0.8,1.4 1.2,1.9c0.4,0.5 1.1,1 2.1,1.5c0.9,0.5 1.6,0.9 2.2,1.1c0.5,0.2 1.4,0.5 2.5,1c0.2,0.1 0.4,0.2 0.7,0.3c1.6,0.6 2.8,1.1 3.5,1.4c0.7,0.3 1.4,0.8 2.1,1.5c0.7,0.7 1,1.6 1,2.5c0,1.4 -0.6,2.4 -1.8,3.1c-1.2,0.8 -2.8,1.1 -4.6,1.1c-1.8,0 -3.4,-0.3 -4.9,-1c-1.5,-0.7 -2.2,-1.6 -2.2,-2.9l0,-1.9l-3.4,0l0,2.7c0,2.1 1,3.7 3.1,4.8l0,0l0,0z" class="st0"/>
   <path id="svg_10" clip-rule="evenodd" fill-rule="evenodd" d="m351.6,75.1c1.8,1.4 4,2.1 6.4,2.1c2.9,0 5.3,-1 7.3,-3.1c0.9,-0.9 1.6,-1.9 2.1,-3.1l0.1,0c0,0.2 0,0.4 -0.1,0.5c-0.1,0.5 -0.1,1 -0.1,1.6l0,0.5c0,2 1.1,3 3.2,3l4.4,0l0,-3l-3,0c-0.8,0 -1.2,-0.4 -1.2,-1.2l0,-13.5c0,-6.8 -3.4,-10.2 -10,-10.2c-2.8,0 -5.1,0.5 -7.3,1.5c-0.9,0.4 -1.8,0.9 -2.6,1.6l1.7,2.8c0.8,-0.6 1.5,-1 2.2,-1.4c1.9,-0.9 3.8,-1.3 5.7,-1.3c4.4,0 6.6,2.3 6.6,6.9l0,1.1l-1.8,0c-10.9,0 -16.4,3.1 -16.4,9.2c0,2.6 1,4.6 2.8,6l0,0l0,0zm13.9,-12.4l1.6,0l0,1.3c0,2.6 -0.8,4.9 -2.3,7c-1.6,2.1 -3.7,3.2 -6.2,3.2c-1.8,0 -3.2,-0.5 -4.3,-1.6c-1,-1.1 -1.6,-2.4 -1.6,-3.8c-0.1,-4.1 4.2,-6.1 12.8,-6.1l0,0l0,0z" class="st0"/>
   <path id="svg_11" clip-rule="evenodd" fill-rule="evenodd" d="m391.7,76.6l0,-3l-4.6,0l0,-10.1c0,-3.1 1,-5.7 3,-8c1.9,-2.2 4.4,-3.4 7.4,-3.4c2.4,0 4,0.7 4.8,2.1c0.8,1.4 1.2,3.4 1.2,6l0,16.4l8.3,0l0,-3l-4.6,0l0,-14.3c0,-3.5 -0.7,-6.1 -2.1,-7.9c-1.4,-1.8 -3.7,-2.7 -7,-2.7c-3,0 -5.4,0.8 -7.4,2.4c-1.9,1.7 -3.2,3.2 -3.7,4.8l-0.1,0l0.1,-0.6c0.1,-0.5 0.1,-1 0.1,-1.4l0,-1.6c0,-2 -1.1,-3 -3.3,-3l-5.2,0l0,3l3.7,0c0.8,0 1.2,0.4 1.2,1.2l0,20l-4.6,0l0,3l12.8,0l0,0.1z" class="st0"/>
   <polygon id="svg_12" points="411.70001220703125,12.400001525878906 405.3999938964844,3.9000015258789062 399.20001220703125,12.200000762939453 398.8999938964844,12.5 398.70001220703125,12.200000762939453 392.5,3.9000015258789062 386.3999938964844,12.200000762939453 386.1000061035156,12.5 385.8999938964844,12.200000762939453 379.70001220703125,3.9000015258789062 373.5,12.200000762939453 373.29998779296875,12.5 373.1000061035156,12.200000762939453 366.8999938964844,3.9000015258789062 360.70001220703125,12.200000762939453 360.5,12.5 360.20001220703125,12.200000762939453 354.1000061035156,3.9000015258789062 347.8999938964844,12.200000762939453 347.70001220703125,12.5 347.3999938964844,12.200000762939453 341.29998779296875,4 341.29998779296875,3 347.70001220703125,11.5 353.79998779296875,3.200000762939453 354.1000061035156,2.9000015258789062 354.29998779296875,3.200000762939453 360.5,11.5 366.6000061035156,3.200000762939453 366.8999938964844,2.9000015258789062 367.1000061035156,3.200000762939453 373.29998779296875,11.5 379.5,3.200000762939453 379.70001220703125,2.9000015258789062 380,3.200000762939453 386.1000061035156,11.5 392.29998779296875,3.200000762939453 392.5,2.9000015258789062 392.79998779296875,3.200000762939453 398.8999938964844,11.5 405.1000061035156,3.200000762939453 405.3999938964844,2.9000015258789062 405.6000061035156,3.200000762939453 411.70001220703125,11.400001525878906 411.70001220703125,12.400001525878906 "/>
   <polygon id="svg_13" points="411.70001220703125,33.099998474121094 405.3999938964844,24.599998474121094 399.20001220703125,32.80000305175781 398.8999938964844,33.099998474121094 398.70001220703125,32.80000305175781 392.5,24.599998474121094 386.3999938964844,32.80000305175781 386.1000061035156,33.099998474121094 385.8999938964844,32.80000305175781 379.70001220703125,24.599998474121094 373.5,32.80000305175781 373.29998779296875,33.099998474121094 373.1000061035156,32.80000305175781 366.8999938964844,24.599998474121094 360.70001220703125,32.80000305175781 360.5,33.099998474121094 360.20001220703125,32.80000305175781 354.1000061035156,24.599998474121094 347.8999938964844,32.80000305175781 347.70001220703125,33.099998474121094 347.3999938964844,32.80000305175781 341.29998779296875,24.599998474121094 341.29998779296875,23.599998474121094 347.70001220703125,32.099998474121094 353.79998779296875,23.900001525878906 354.1000061035156,23.599998474121094 354.29998779296875,23.900001525878906 360.5,32.099998474121094 366.6000061035156,23.900001525878906 366.8999938964844,23.599998474121094 367.1000061035156,23.900001525878906 373.29998779296875,32.099998474121094 379.5,23.900001525878906 379.70001220703125,23.599998474121094 380,23.900001525878906 386.1000061035156,32.099998474121094 392.29998779296875,23.900001525878906 392.5,23.599998474121094 392.79998779296875,23.900001525878906 398.8999938964844,32.099998474121094 405.1000061035156,23.900001525878906 405.3999938964844,23.599998474121094 405.6000061035156,23.900001525878906 411.70001220703125,32.099998474121094 411.70001220703125,33.099998474121094 "/>
   <polygon id="svg_14" points="411.70001220703125,15.900001525878906 405.3999938964844,7.400001525878906 399.20001220703125,15.599998474121094 398.8999938964844,15.900001525878906 398.70001220703125,15.599998474121094 392.5,7.400001525878906 386.3999938964844,15.599998474121094 386.1000061035156,15.900001525878906 385.8999938964844,15.599998474121094 379.70001220703125,7.400001525878906 373.5,15.599998474121094 373.29998779296875,15.900001525878906 373.1000061035156,15.599998474121094 366.8999938964844,7.400001525878906 360.70001220703125,15.599998474121094 360.5,15.900001525878906 360.20001220703125,15.599998474121094 354.1000061035156,7.400001525878906 347.8999938964844,15.599998474121094 347.70001220703125,15.900001525878906 347.3999938964844,15.599998474121094 341.29998779296875,7.400001525878906 341.29998779296875,6.400001525878906 347.70001220703125,14.900001525878906 353.79998779296875,6.700000762939453 354.1000061035156,6.299999237060547 354.29998779296875,6.700000762939453 360.5,14.900001525878906 366.6000061035156,6.700000762939453 366.8999938964844,6.299999237060547 367.1000061035156,6.700000762939453 373.29998779296875,14.900001525878906 379.5,6.700000762939453 379.70001220703125,6.299999237060547 380,6.700000762939453 386.1000061035156,14.900001525878906 392.29998779296875,6.700000762939453 392.5,6.299999237060547 392.79998779296875,6.700000762939453 398.8999938964844,14.900001525878906 405.1000061035156,6.700000762939453 405.3999938964844,6.299999237060547 405.6000061035156,6.700000762939453 411.70001220703125,14.900001525878906 411.70001220703125,15.900001525878906 "/>
   <polygon id="svg_15" points="411.70001220703125,19.299999237060547 405.3999938964844,10.799999237060547 399.20001220703125,19.099998474121094 398.8999938964844,19.400001525878906 398.70001220703125,19.099998474121094 392.5,10.799999237060547 386.3999938964844,19.099998474121094 386.1000061035156,19.400001525878906 385.8999938964844,19.099998474121094 379.70001220703125,10.799999237060547 373.5,19.099998474121094 373.29998779296875,19.400001525878906 373.1000061035156,19.099998474121094 366.8999938964844,10.799999237060547 360.70001220703125,19.099998474121094 360.5,19.400001525878906 360.20001220703125,19.099998474121094 354.1000061035156,10.799999237060547 347.8999938964844,19.099998474121094 347.70001220703125,19.400001525878906 347.3999938964844,19.099998474121094 341.29998779296875,10.900001525878906 341.29998779296875,9.900001525878906 347.70001220703125,18.400001525878906 353.79998779296875,10.099998474121094 354.1000061035156,9.799999237060547 354.29998779296875,10.099998474121094 360.5,18.400001525878906 366.6000061035156,10.099998474121094 366.8999938964844,9.799999237060547 367.1000061035156,10.099998474121094 373.29998779296875,18.400001525878906 379.5,10.099998474121094 379.70001220703125,9.799999237060547 380,10.099998474121094 386.1000061035156,18.400001525878906 392.29998779296875,10.099998474121094 392.5,9.799999237060547 392.79998779296875,10.099998474121094 398.8999938964844,18.400001525878906 405.1000061035156,10.099998474121094 405.3999938964844,9.799999237060547 405.6000061035156,10.099998474121094 411.70001220703125,18.299999237060547 411.70001220703125,19.299999237060547 "/>
   <polygon id="svg_16" points="411.70001220703125,22.700000762939453 405.3999938964844,14.200000762939453 399.20001220703125,22.5 398.8999938964844,22.799999237060547 398.70001220703125,22.5 392.5,14.200000762939453 386.3999938964844,22.5 386.1000061035156,22.799999237060547 385.8999938964844,22.5 379.70001220703125,14.200000762939453 373.5,22.5 373.29998779296875,22.799999237060547 373.1000061035156,22.5 366.8999938964844,14.200000762939453 360.70001220703125,22.5 360.5,22.799999237060547 360.20001220703125,22.5 354.1000061035156,14.200000762939453 347.8999938964844,22.5 347.70001220703125,22.799999237060547 347.3999938964844,22.5 341.29998779296875,14.299999237060547 341.29998779296875,13.299999237060547 347.70001220703125,21.799999237060547 353.79998779296875,13.599998474121094 354.1000061035156,13.200000762939453 354.29998779296875,13.599998474121094 360.5,21.799999237060547 366.6000061035156,13.599998474121094 366.8999938964844,13.200000762939453 367.1000061035156,13.599998474121094 373.29998779296875,21.799999237060547 379.5,13.599998474121094 379.70001220703125,13.200000762939453 380,13.599998474121094 386.1000061035156,21.799999237060547 392.29998779296875,13.599998474121094 392.5,13.200000762939453 392.79998779296875,13.599998474121094 398.8999938964844,21.799999237060547 405.1000061035156,13.599998474121094 405.3999938964844,13.200000762939453 405.6000061035156,13.599998474121094 411.70001220703125,21.700000762939453 411.70001220703125,22.700000762939453 "/>
   <polygon id="svg_17" points="411.70001220703125,26.200000762939453 405.3999938964844,17.700000762939453 399.20001220703125,25.900001525878906 398.8999938964844,26.299999237060547 398.70001220703125,25.900001525878906 392.5,17.700000762939453 386.3999938964844,25.900001525878906 386.1000061035156,26.299999237060547 385.8999938964844,25.900001525878906 379.70001220703125,17.700000762939453 373.5,25.900001525878906 373.29998779296875,26.299999237060547 373.1000061035156,25.900001525878906 366.8999938964844,17.700000762939453 360.70001220703125,25.900001525878906 360.5,26.299999237060547 360.20001220703125,25.900001525878906 354.1000061035156,17.700000762939453 347.8999938964844,25.900001525878906 347.70001220703125,26.299999237060547 347.3999938964844,25.900001525878906 341.29998779296875,17.799999237060547 341.29998779296875,16.700000762939453 347.70001220703125,25.299999237060547 353.79998779296875,17 354.1000061035156,16.700000762939453 354.29998779296875,17 360.5,25.299999237060547 366.6000061035156,17 366.8999938964844,16.700000762939453 367.1000061035156,17 373.29998779296875,25.299999237060547 379.5,17 379.70001220703125,16.700000762939453 380,17 386.1000061035156,25.299999237060547 392.29998779296875,17 392.5,16.700000762939453 392.79998779296875,17 398.8999938964844,25.299999237060547 405.1000061035156,17 405.3999938964844,16.700000762939453 405.6000061035156,17 411.70001220703125,25.200000762939453 411.70001220703125,26.200000762939453 "/>
   <polygon id="svg_18" points="411.70001220703125,29.599998474121094 405.3999938964844,21.099998474121094 399.20001220703125,29.400001525878906 398.8999938964844,29.699996948242188 398.70001220703125,29.400001525878906 392.5,21.099998474121094 386.3999938964844,29.400001525878906 386.1000061035156,29.699996948242188 385.8999938964844,29.400001525878906 379.70001220703125,21.099998474121094 373.5,29.400001525878906 373.29998779296875,29.699996948242188 373.1000061035156,29.400001525878906 366.8999938964844,21.099998474121094 360.70001220703125,29.400001525878906 360.5,29.699996948242188 360.20001220703125,29.400001525878906 354.1000061035156,21.099998474121094 347.8999938964844,29.400001525878906 347.70001220703125,29.699996948242188 347.3999938964844,29.400001525878906 341.29998779296875,21.200000762939453 341.29998779296875,20.200000762939453 347.70001220703125,28.700000762939453 353.79998779296875,20.400001525878906 354.1000061035156,20.099998474121094 354.29998779296875,20.400001525878906 360.5,28.700000762939453 366.6000061035156,20.400001525878906 366.8999938964844,20.099998474121094 367.1000061035156,20.400001525878906 373.29998779296875,28.700000762939453 379.5,20.400001525878906 379.70001220703125,20.099998474121094 380,20.400001525878906 386.1000061035156,28.700000762939453 392.29998779296875,20.400001525878906 392.5,20.099998474121094 392.79998779296875,20.400001525878906 398.8999938964844,28.700000762939453 405.1000061035156,20.400001525878906 405.3999938964844,20.099998474121094 405.6000061035156,20.400001525878906 411.70001220703125,28.599998474121094 411.70001220703125,29.599998474121094 "/>
   <path id="svg_19" clip-rule="evenodd" fill-rule="evenodd" d="m336.7,27.8l0,5.4l-3.9,0l3.9,-5.4l0,0zm-26.3,5.3l-3.9,0l0,-5.4l3.9,5.4l0,0z" class="st0"/>
   <path id="svg_20" clip-rule="evenodd" fill-rule="evenodd" d="m336.7,18.9l0,5.4l-6.4,8.9l-3.9,0l10.3,-14.3l0,0zm-19.9,14.2l-3.9,0l-6.4,-8.9l0,-5.4l10.3,14.3l0,0z" class="st0"/>
   <polygon id="svg_21" clip-rule="evenodd" fill-rule="evenodd" points="336.70001220703125,10.599998474121094 336.70001220703125,15.200000762939453 323.8999938964844,33.099998474121094 319.3999938964844,33.099998474121094 306.5,15.200000762939453 306.5,10.599998474121094 321.6000061035156,31.599998474121094 336.70001220703125,10.599998474121094 " class="st0"/>
   <polygon id="svg_22" clip-rule="evenodd" fill-rule="evenodd" points="306.5,2.9000015258789062 306.5,2.9000015258789062 321.6000061035156,23.900001525878906 336.70001220703125,2.9000015258789062 336.70001220703125,2.9000015258789062 336.70001220703125,6.700000762939453 322.5,26.5 321.6000061035156,27.799999237060547 320.70001220703125,26.5 306.5,6.700000762939453 306.5,2.9000015258789062 " class="st0"/>
   <polygon id="svg_23" clip-rule="evenodd" fill-rule="evenodd" points="309.5,2.9000015258789062 311.70001220703125,2.9000015258789062 321.6000061035156,16.700000762939453 331.5,2.9000015258789062 333.79998779296875,2.9000015258789062 322.29998779296875,18.799999237060547 321.6000061035156,19.799999237060547 320.8999938964844,18.799999237060547 309.5,2.9000015258789062 " class="st0"/>
   <polygon id="svg_24" clip-rule="evenodd" fill-rule="evenodd" points="314.79998779296875,2.9000015258789062 316.5,2.9000015258789062 321.6000061035156,10 326.70001220703125,2.9000015258789062 328.3999938964844,2.9000015258789062 322.20001220703125,11.599998474121094 321.6000061035156,12.299999237060547 321.1000061035156,11.599998474121094 314.79998779296875,2.9000015258789062 " class="st0"/>
   <polygon id="svg_25" clip-rule="evenodd" fill-rule="evenodd" points="319.79998779296875,2.9000015258789062 320.8999938964844,2.9000015258789062 321.6000061035156,3.9000015258789062 322.29998779296875,2.9000015258789062 323.3999938964844,2.9000015258789062 322,4.900001525878906 321.6000061035156,5.400001525878906 321.29998779296875,4.900001525878906 319.79998779296875,2.9000015258789062 " class="st0"/>
   <path id="svg_26" clip-rule="evenodd" fill-rule="evenodd" d="m295.2,26.4l-16.8,0l0,-16.8l16.8,0l0,16.8l0,0zm-23.5,-23.5l0,30.2l30.2,0l0,-30.2l-30.2,0l0,0z" class="st0"/>
   <polygon id="svg_27" clip-rule="evenodd" fill-rule="evenodd" points="247,13 236.89999389648438,13 236.89999389648438,2.9000015258789062 247,2.9000015258789062 247,13 " class="st0"/>
   <polygon id="svg_28" clip-rule="evenodd" fill-rule="evenodd" points="257,23.099998474121094 247,23.099998474121094 247,13 257,13 257,23.099998474121094 " class="st0"/>
   <polygon id="svg_29" clip-rule="evenodd" fill-rule="evenodd" points="267.1000061035156,13 257,13 257,2.9000015258789062 267.1000061035156,2.9000015258789062 267.1000061035156,13 " class="st0"/>
   <polygon id="svg_30" clip-rule="evenodd" fill-rule="evenodd" points="267.1000061035156,33.099998474121094 257,33.099998474121094 257,23.099998474121094 267.1000061035156,23.099998474121094 267.1000061035156,33.099998474121094 " class="st0"/>
   <polygon id="svg_31" clip-rule="evenodd" fill-rule="evenodd" points="247,33.099998474121094 236.89999389648438,33.099998474121094 236.89999389648438,23.099998474121094 247,23.099998474121094 247,33.099998474121094 " class="st0"/>
  </g>
 </g>
</svg>